# AST/ASF file generated using VICON BodyLanguage
# -----------------------------------------------
:version 1.10
:name VICON
:units
  mass 1.0
  length 0.45
  angle deg
:documentation
   .ast/.asf automatically generated from VICON data using
   VICON BodyBuilder and BodyLanguage model FoxedUp or BRILLIANT.MOD
:root
   order TX TY TZ RX RY RZ
   axis XYZ
   position 0 0 0  
   orientation 0 0 0 
:bonedata
  begin
     id 1 
     name lhipjoint
     direction 0.677091 -0.635792 0.370561 
     length 2.74323 
     axis 0 0 0  XYZ
  end
  begin
     id 2 
     name lfemur
     direction 0.34202 -0.939693 0  
     length 7.44995  
     axis 0 0 20  XYZ
    dof rx ry rz
    limits (-160.0 20.0)
           (-70.0 70.0)
           (-60.0 70.0)
  end
  begin
     id 3 
     name ltibia
     direction 0.34202 -0.939693 0   
     length 7.34467   
     axis 0 0 20   XYZ
    dof rx
    limits (-10.0 170.0)
  end
  begin
     id 4 
     name lfoot
     direction 0.101953 -0.280114 0.954537   
     length 1.72105   
     axis -90 7.62852e-016 20   XYZ
    dof rx rz
    limits (-45.0 90.0)
           (-70.0 20.0)
  end
  begin
     id 5 
     name ltoes
     direction 1.53537e-011 -4.21915e-011 1   
     length 0.865872   
     axis -90 7.62852e-016 20   XYZ
    dof rx
    limits (-90.0 20.0)
  end
  begin
     id 6 
     name rhipjoint
     direction -0.695735 -0.620586 0.361699   
     length 2.81045  
     axis 0 0 0  XYZ 
  end
  begin
     id 7 
     name rfemur
     direction -0.34202 -0.939693 0   
     length 7.29387   
     axis 0 0 -20   XYZ
    dof rx ry rz
    limits (-160.0 20.0)
           (-70.0 70.0)
           (-70.0 60.0)
  end
  begin
     id 8 
     name rtibia
     direction -0.34202 -0.939693 0   
     length 7.44935   
     axis 0 0 -20   XYZ
    dof rx
    limits (-10.0 170.0)
 end
 begin
     id 9 
     name rfoot
     direction -0.104163 -0.286184 0.952496   
     length 1.77731  
     axis -90 -7.62852e-016 -20   XYZ
    dof rx rz
    limits (-45.0 90.0)
           (-20.0 70.0)
  end
  begin
     id 10 
     name rtoes
     direction -1.5355e-011 -4.21888e-011 1   
     length 0.892424   
     axis -90 -7.62852e-016 -20   XYZ
    dof rx
    limits (-90.0 20.0)
  end
  begin
     id 11 
     name lowerback
     direction 0.0100202 0.997226 -0.0737589   
     length 2.16892   
     axis 0 0 0   XYZ
    dof rx ry rz
    limits (-20.0 45.0)
           (-30.0 30.0)
           (-30.0 30.0)
  end
  begin
     id 12 
     name upperback
     direction 0.00432398 0.999988 -0.00215019   
     length 2.17326   
     axis 0 0 0   XYZ
    dof rx ry rz
    limits (-20.0 45.0)
           (-30.0 30.0)
           (-30.0 30.0)
  end
  begin
     id 13 
     name thorax
     direction -0.00195047 0.999485 0.0320434   
     length 2.18139   
     axis 0 0 0   XYZ
    dof rx ry rz
    limits (-20.0 45.0)
           (-30.0 30.0)
           (-30.0 30.0)
  end
  begin
     id 14 
     name lowerneck
     direction 0.00782762 0.986241 0.165128   
     length 1.88415   
     axis 0 0 0   XYZ
    dof rx ry rz
    limits (-20.0 45.0)
           (-30.0 30.0)
           (-30.0 30.0)
  end
  begin
     id 15 
     name upperneck
     direction 0.00988667 0.981098 -0.193258   
     length 1.9242   
     axis 0 0 0   XYZ
    dof rx ry rz
    limits (-20.0 45.0)
           (-30.0 30.0)
           (-30.0 30.0)
  end
  begin
     id 16
     name head
     direction 0.00252199 0.996513 -0.0833958  
     length 1.93887  
     axis 0 0 0   XYZ
    dof rx ry rz
    limits (-20.0 45.0)
           (-30.0 30.0)
           (-30.0 30.0)
  end
  begin
     id 17 
     name lclavicle
     direction 0.929492 0.368193 -0.0218667  
     length 3.5955  
     axis 0 0 0   XYZ
    dof ry rz
    limits (-20.0 10.0)
           (0.0 20.0)
  end
  begin
     id 18 
     name lhumerus
     direction 1 -4.48972e-011 1.41911e-027   
     length 5.2795   
     axis 180 -30 -90   XYZ
    dof rx ry rz
    limits (-60.0 90.0)
           (-90.0 90.0)
           (-90.0 90.0)
  end
  begin
     id 19
     name lradius
     direction 1 -4.48963e-011 7.05772e-027   
     length 3.53504   
     axis 180 -30 -90   XYZ
    dof rx
    limits (-10.0 170.0)
  end
  begin
     id 20
     name lwrist
     direction 1 -4.48957e-011 9.54866e-027   
     length 1.76752   
     axis -7.69462e-015 90 90   XYZ
    dof ry
    limits (-180.0 0.0)
 end
  begin
     id 21 
     name lhand
     direction 1 -4.48979e-011 1.90973e-026   
     length 0.667948   
     axis -1.21857e-014 90 90   XYZ
    dof rx rz
    limits (-90.0 90.0)
           (-45.0 45.0)
  end
  begin
     id 22 
     name lfingers
     direction 1 -4.48987e-011 3.81946e-026   
     length 0.538517   
     axis -2.43714e-014 90 90   XYZ
    dof rx
    limits (0.0 90.0)
  end
  begin
     id 23
     name lthumb
     direction 0.707107 -6.34962e-011 0.707107   
     length 0.773206   
     axis -90 45 2.85299e-015   XYZ
    dof rx rz
    limits (-45.0 45.0)
           (-45.0 45.0)
  end
  begin
     id 24 
     name rclavicle
     direction -0.898763 0.414256 -0.143584   
     length 3.5176  
     axis 0 0 0   XYZ 
    dof ry rz
    limits (-10.0 20.0)
           (-20.0 0.0)
  end
  begin
     id 25 
     name rhumerus
     direction -1 -4.48971e-011 1.129e-027  
     length 5.25035   
     axis 180 30 90   XYZ
    dof rx ry rz
    limits (-90.0 60.0)
           (-90.0 90.0)
           (-90.0 90.0)
  end
  begin
     id 26 
     name rradius
     direction -1 -4.48955e-011 6.34664e-027   
     length 3.58884   
     axis 180 30 90   XYZ
    dof rx
    limits (-10.0 170.0)
  end
  begin
     id 27 
     name rwrist
     direction -1 -4.48966e-011 9.54866e-027   
     length 1.79442   
     axis -7.69462e-015 -90 -90   XYZ
    dof ry
    limits (-180.0 0.0)
  end
  begin
     id 28
     name rhand
     direction -1 -4.48973e-011 1.90973e-026   
     length 0.779235   
     axis -1.21857e-014 -90 -90   XYZ
    dof rx rz
    limits (-90.0 90.0)
           (-45.0 45.0)
  end
  begin
     id 29
     name rfingers
     direction -1 -4.48984e-011 3.81946e-026   
     length 0.62824   
     axis -2.43714e-014 -90 -90   XYZ
    dof rx
    limits (0.0 90.0)
  end
  begin
     id 30
     name rthumb
     direction -0.707107 -6.34968e-011 0.707107   
     length 0.90203   
     axis -90 -45 -2.85299e-015   XYZ
    dof rx rz
    limits (-45.0 45.0)
           (-45.0 45.0)
  end
:hierarchy
  begin
    root lhipjoint rhipjoint lowerback
    lhipjoint lfemur
    lfemur ltibia
    ltibia lfoot
    lfoot ltoes
    rhipjoint rfemur
    rfemur rtibia
    rtibia rfoot
    rfoot rtoes
    lowerback upperback
    upperback thorax
    thorax lowerneck lclavicle rclavicle
    lowerneck upperneck
    upperneck head
    lclavicle lhumerus
    lhumerus lradius
    lradius lwrist
    lwrist lhand lthumb
    lhand lfingers
    rclavicle rhumerus
    rhumerus rradius
    rradius rwrist
    rwrist rhand rthumb
    rhand rfingers
  end

#!OML:ASF I:\Random Stuff\random\construction\7_22_03\Session 2\subj1.ASF
:FULLY-SPECIFIED
:DEGREES
1
root 7.08687 17.548 -11.0057 5.53263 -21.4372 -2.67615
lowerback 1.93004 1.80543 2.31422
upperback -4.63726 2.53707 0.342098
thorax -5.80364 1.15564 -1.1133
lowerneck -23.4742 7.45795 4.99039
upperneck 26.832 8.87647 -0.277574
head 13.1509 4.3687 0.674314
rclavicle -2.87492e-014 4.47266e-015
rhumerus -44.1982 4.78929 -86.3445
rradius 33.2862
rwrist -12.4137
rhand -20.5663 13.2357
rfingers 7.12502
rthumb 5.79308 -16.6651
lclavicle -2.87492e-014 4.47266e-015
lhumerus -36.9799 -15.563 94.0262
lradius 33.8138
lwrist 34.3911
lhand -17.1499 59.1807
lfingers 7.12502
lthumb 9.09066 88.9648
rfemur -6.75007 26.436 20.2533
rtibia 11.4701
rfoot -0.917637 -30.9006
rtoes -24.9245
lfemur -9.46035 -17.4605 -16.2859
ltibia 23.9367
lfoot -22.5078 29.7678
ltoes 0.556616
2
root 7.08084 17.5509 -11.0134 5.65819 -21.2564 -2.70245
lowerback 1.95577 1.69185 2.26528
upperback -4.70941 2.38881 0.428193
thorax -5.90526 1.08446 -0.989224
lowerneck -23.2617 7.5119 5.12644
upperneck 26.4954 8.99767 -0.572549
head 12.9986 4.39986 0.545943
rclavicle 3.16192e-015 1.36167e-014
rhumerus -44.0897 4.60474 -86.0697
rradius 33.3128
rwrist -11.43
rhand -19.6504 14.1429
rfingers 7.12502
rthumb 6.67727 -15.7318
lclavicle 3.16192e-015 1.36167e-014
lhumerus -37.1036 -15.6937 94.1755
lradius 34.1988
lwrist 35.0387
lhand -17.6189 59.5792
lfingers 7.12502
lthumb 8.6381 89.3824
rfemur -6.7287 26.2775 20.2819
rtibia 11.2017
rfoot -0.705813 -30.8849
rtoes -24.99
lfemur -9.68821 -16.9511 -16.1144
ltibia 23.9628
lfoot -22.2425 29.3321
ltoes -1.58901
3
root 7.07695 17.5546 -11.0151 5.68803 -21.1424 -2.68438
lowerback 2.01196 1.65008 2.24322
upperback -4.7595 2.33523 0.445753
thorax -5.9938 1.05773 -0.957895
lowerneck -23.005 7.51707 5.30515
upperneck 26.1181 9.0288 -0.855539
head 12.822 4.39908 0.397196
rclavicle 1.49089e-014 -3.8266e-015
rhumerus -44.0643 4.41997 -85.8767
rradius 33.3928
rwrist -10.6649
rhand -18.7324 15.0872
rfingers 7.12502
rthumb 7.56341 -14.7576
lclavicle 1.49089e-014 -3.8266e-015
lhumerus -37.2379 -15.9574 94.3065
lradius 34.5781
lwrist 35.7133
lhand -17.95 60.0539
lfingers 7.12502
lthumb 8.31861 89.8701
rfemur -6.64469 26.1641 20.2814
rtibia 10.9938
rfoot -0.647709 -30.859
rtoes -24.8891
lfemur -9.76333 -16.721 -16.0757
ltibia 23.9483
lfoot -22.184 29.1924
ltoes -3.39305
4
root 7.0747 17.5598 -11.0133 5.68727 -21.0521 -2.66143
lowerback 2.05984 1.64624 2.2544
upperback -4.78784 2.33212 0.435204
thorax -6.05061 1.05437 -0.976988
lowerneck -22.8651 7.50898 5.38254
upperneck 25.8793 9.01859 -0.953555
head 12.7077 4.39309 0.335334
rclavicle 4.20243e-015 9.88954e-015
rhumerus -44.1369 4.61351 -86.0063
rradius 33.6469
rwrist -9.79253
rhand -17.9937 15.9242
rfingers 7.12502
rthumb 8.27638 -13.8937
lclavicle 4.20243e-015 9.88954e-015
lhumerus -37.3136 -16.193 94.3894
lradius 34.8446
lwrist 36.2394
lhand -18.1894 60.4014
lfingers 7.12502
lthumb 8.08749 269.773
rfemur -6.48001 26.0684 20.2752
rtibia 10.6954
rfoot -0.647728 -30.8477
rtoes -24.2784
lfemur -9.80032 -16.5521 -16.0645
ltibia 23.9861
lfoot -22.1386 28.9995
ltoes -4.83124
5
root 7.07327 17.5654 -11.0116 5.68926 -20.9956 -2.64299
lowerback 2.08688 1.65237 2.29863
upperback -4.80202 2.34263 0.414034
thorax -6.07836 1.05641 -1.02554
lowerneck -22.8607 7.50213 5.34587
upperneck 25.8077 8.98862 -0.853342
head 12.6693 4.39124 0.371619
rclavicle 3.15788e-014 1.09829e-014
rhumerus -44.0416 4.79681 -86.0499
rradius 33.6601
rwrist -8.8476
rhand -17.1785 16.9219
rfingers 7.12502
rthumb 9.06308 -12.8634
lclavicle 3.15788e-014 1.09829e-014
lhumerus -37.357 -16.3756 94.4234
lradius 35.0512
lwrist 36.5831
lhand -18.3328 60.6691
lfingers 7.12502
lthumb 7.94909 269.5
rfemur -6.32635 26.0085 20.2616
rtibia 10.3982
rfoot -0.670133 -30.8992
rtoes -23.3561
lfemur -9.81197 -16.6515 -16.0521
ltibia 24.0491
lfoot -22.2379 28.8505
ltoes -5.26139
6
root 7.07226 17.5677 -11.0094 5.70688 -20.9503 -2.64724
lowerback 2.08055 1.64887 2.38824
upperback -4.806 2.34144 0.395009
thorax -6.07495 1.05106 -1.09505
lowerneck -22.8925 7.51262 5.37525
upperneck 25.7877 8.9859 -0.840868
head 12.6684 4.39444 0.372005
rclavicle -4.2366e-014 -2.48481e-015
rhumerus -43.8068 5.05543 -86.1099
rradius 33.493
rwrist -7.86993
rhand -16.2241 18.094
rfingers 7.12502
rthumb 9.98394 -11.6492
lclavicle -4.2366e-014 -2.48481e-015
lhumerus -37.4296 -16.5709 94.4863
lradius 35.3502
lwrist 37.1063
lhand -18.7718 61.2443
lfingers 7.12502
lthumb 7.52538 268.91
rfemur -6.18266 25.9652 20.2617
rtibia 10.0991
rfoot -0.503023 -30.8887
rtoes -23.4199
lfemur -9.86038 -16.7203 -16.0307
ltibia 24.136
lfoot -22.5642 28.8893
ltoes -7.06965
7
root 7.07076 17.5676 -11.0074 5.73789 -20.9029 -2.70115
lowerback 2.08376 1.63671 2.53866
upperback -4.8071 2.33198 0.374571
thorax -6.07209 1.03867 -1.19966
lowerneck -22.9607 7.53891 5.51477
upperneck 25.8188 9.00354 -0.95483
head 12.7096 4.39856 0.313752
rclavicle -1.69619e-014 -2.38542e-015
rhumerus -43.6198 5.43201 -86.2503
rradius 33.3065
rwrist -6.76745
rhand -15.4611 19.2201
rfingers 7.12502
rthumb 10.72 -10.4864
lclavicle -1.69619e-014 -2.38542e-015
lhumerus -37.4183 -16.6032 94.432
lradius 35.3497
lwrist 37.0958
lhand -18.721 61.1928
lfingers 7.12502
lthumb 7.57444 268.963
rfemur -6.05471 25.9267 20.3241
rtibia 9.87422
rfoot -0.32608 -30.8224
rtoes -23.6994
lfemur -9.9332 -16.4718 -15.9591
ltibia 24.2093
lfoot -22.4483 28.7373
ltoes -7.8108
8
root 7.06938 17.5661 -11.0076 5.73041 -20.8633 -2.71159
lowerback 2.1518 1.61806 2.66965
upperback -4.82277 2.3133 0.314391
thorax -6.1215 1.02061 -1.33651
lowerneck -23.0086 7.57899 5.71153
upperneck 25.8701 9.02277 -1.07333
head 12.7588 4.40847 0.244739
rclavicle -2.67241e-014 -8.89561e-015
rhumerus -43.5911 6.00049 -86.602
rradius 33.256
rwrist -5.8289
rhand -14.7844 20.3416
rfingers 7.12502
rthumb 11.3727 -9.32997
lclavicle -2.67241e-014 -8.89561e-015
lhumerus -37.4144 -16.647 94.3478
lradius 35.2872
lwrist 37.0555
lhand -18.7331 61.1238
lfingers 7.12502
lthumb 7.56278 269.031
rfemur -5.95575 25.8916 20.3556
rtibia 9.74258
rfoot -0.320249 -30.8163
rtoes -23.2981
lfemur -9.98556 -16.1202 -15.9391
ltibia 24.2442
lfoot -22.2451 28.5972
ltoes -8.45849
9
root 7.06839 17.5669 -11.0083 5.72725 -20.8189 -2.68672
lowerback 2.20034 1.60324 2.73177
upperback -4.84787 2.29602 0.260035
thorax -6.17242 1.00651 -1.42854
lowerneck -23.015 7.61419 5.88689
upperneck 25.9013 9.03689 -1.16581
head 12.7888 4.41856 0.185892
rclavicle -1.4679e-014 6.26172e-015
rhumerus -43.6453 6.40339 -86.8469
rradius 33.3066
rwrist -4.72067
rhand -14.145 21.4853
rfingers 7.12502
rthumb 11.9893 -8.15132
lclavicle -1.4679e-014 6.26172e-015
lhumerus -37.4277 -16.6989 94.3187
lradius 35.2042
lwrist 37.0167
lhand -18.8681 61.1174
lfingers 7.12502
lthumb 7.43249 269.033
rfemur -5.92716 25.8481 20.3413
rtibia 9.68721
rfoot -0.313918 -30.8143
rtoes -23.1258
lfemur -10.0406 -15.8393 -15.9478
ltibia 24.2494
lfoot -22.0569 28.4498
ltoes -8.62994
